# File created by Blade
# Date/Time:  Wed Jan 21 17:10:37 2015
# Frame Rate: 120.000 fps
#------------------------------------------------------
:FULLY-SPECIFIED
:DEGREES
1466
root 18.608039 35.417108 -24.099468 -179.764811 0.096718 -178.349413
Spine -10.369981 0.561326 0.660108
Head 10.427196 -1.003421 0.039320
LeftShoulder -15.710104 -30.893725 21.218451
LeftArm 4.770955 2.824503 -6.004122
LeftForeArm 11.083138 -0.000000 -2.538491
LeftHand -7.790505 -0.000000 -4.906318
LeftHandThumb1 -26.253704 0.000000 33.147579
RightShoulder -14.114130 -5.819659 -9.542647
RightArm 9.756033 40.542859 13.155520
RightForeArm -38.234881 -0.000000 5.060172
RightHand -7.418496 -0.000000 7.107212
RightHandThumb1 -24.326973 -0.000000 -32.862282
LeftUpLeg 10.885001 10.222011 4.657518
LeftLeg -5.937828 -0.000000 0.000000
LeftFoot -20.879354 25.498432 -13.653752
LeftToeBase 24.100469 -0.000000 -0.000000
RightUpLeg 7.916264 -8.726151 -0.720416
RightLeg -1.823574 -0.000000 0.000000
RightFoot -21.981362 -22.137456 16.832722
RightToeBase 24.434999 -0.000000 -0.000000
1467
root 18.618546 35.415778 -24.113987 -179.767418 0.068152 -178.349512
Spine -10.397595 0.540375 0.622921
Head 10.543273 -1.022277 0.091448
LeftShoulder -15.707325 -30.922002 21.252626
LeftArm 4.813585 2.847133 -5.993191
LeftForeArm 11.082982 -0.000000 -2.545923
LeftHand -7.799332 -0.000000 -4.921710
LeftHandThumb1 -26.253704 0.000000 33.147579
RightShoulder -14.108921 -5.804214 -9.540593
RightArm 9.798735 40.472927 13.156344
RightForeArm -38.269906 -0.000000 5.096646
RightHand -7.362768 -0.000000 7.118426
RightHandThumb1 -24.326973 -0.000000 -32.862282
LeftUpLeg 10.882311 10.214598 4.677688
LeftLeg -5.893441 -0.000000 0.000000
LeftFoot -20.909257 25.484131 -13.670869
LeftToeBase 24.149213 -0.000000 -0.000000
RightUpLeg 7.994275 -8.768662 -0.718559
RightLeg -1.910138 -0.000000 0.000000
RightFoot -21.952926 -22.072206 16.921542
RightToeBase 24.281198 -0.000000 -0.000000
1468
root 18.627347 35.414215 -24.128424 -179.771344 0.032698 -178.351768
Spine -10.425251 0.532842 0.591160
Head 10.667496 -1.071118 0.105841
LeftShoulder -15.687083 -30.948265 21.254260
LeftArm 4.873497 2.861491 -5.975832
LeftForeArm 11.088284 -0.000000 -2.538065
LeftHand -7.852732 -0.000000 -4.943446
LeftHandThumb1 -26.253704 0.000000 33.147579
RightShoulder -14.119960 -5.809760 -9.541399
RightArm 9.842759 40.385021 13.148246
RightForeArm -38.251707 -0.000000 5.157706
RightHand -7.560939 -0.000000 7.201812
RightHandThumb1 -24.326973 -0.000000 -32.862282
LeftUpLeg 10.886101 10.186934 4.692580
LeftLeg -5.864560 -0.000000 0.000000
LeftFoot -20.931780 25.493704 -13.688615
LeftToeBase 24.138136 -0.000000 -0.000000
RightUpLeg 8.072047 -8.767170 -0.708464
RightLeg -1.993503 -0.000000 0.000000
RightFoot -21.967631 -22.101328 16.895242
RightToeBase 24.436947 -0.000000 -0.000000
1469
root 18.635965 35.412545 -24.141190 -179.759259 0.014084 -178.351536
Spine -10.464258 0.531722 0.559446
Head 10.761467 -1.110399 0.156497
LeftShoulder -15.697089 -30.946897 21.273068
LeftArm 4.954337 2.874433 -5.974797
LeftForeArm 11.064116 -0.000000 -2.550101
LeftHand -7.841821 0.000000 -4.929529
LeftHandThumb1 -26.253704 0.000000 33.147579
RightShoulder -14.135200 -5.851168 -9.526572
RightArm 9.932150 40.246235 13.132120
RightForeArm -38.139038 -0.000000 5.041189
RightHand -7.444126 -0.000000 7.136523
RightHandThumb1 -24.326973 -0.000000 -32.862282
LeftUpLeg 10.875793 10.201211 4.708861
LeftLeg -5.840074 -0.000000 0.000000
LeftFoot -20.955450 25.494037 -13.689871
LeftToeBase 24.131621 -0.000000 -0.000000
RightUpLeg 8.126359 -8.760028 -0.694465
RightLeg -2.075734 -0.000000 0.000000
RightFoot -21.954633 -22.140577 16.891578
RightToeBase 24.383458 -0.000000 -0.000000
